<svg width="249" height="44" viewBox="0 0 249 44" fill="none" xmlns="http://www.w3.org/2000/svg">
<path d="M10.804 31.67V11.69H11.174V21.495H25.382V11.69H25.752V31.67H25.382V21.865H11.174V31.67H10.804ZM13.875 35C14.3437 35 14.6767 34.9013 14.874 34.704C15.096 34.482 15.207 34.1367 15.207 33.668V25.454H21.386V33.668C21.386 34.1367 21.4847 34.482 21.682 34.704C21.904 34.9013 22.2493 35 22.718 35H28.453C28.9217 35 29.2547 34.9013 29.452 34.704C29.674 34.482 29.785 34.1367 29.785 33.668V9.692C29.785 9.22333 29.674 8.89033 29.452 8.693C29.2547 8.471 28.9217 8.36 28.453 8.36H22.718C22.2493 8.36 21.904 8.471 21.682 8.693C21.4847 8.89033 21.386 9.22333 21.386 9.692V17.721H15.207V9.692C15.207 9.22333 15.096 8.89033 14.874 8.693C14.6767 8.471 14.3437 8.36 13.875 8.36H8.14C7.67133 8.36 7.326 8.471 7.104 8.693C6.90667 8.89033 6.808 9.22333 6.808 9.692V33.668C6.808 34.1367 6.90667 34.482 7.104 34.704C7.326 34.9013 7.67133 35 8.14 35H13.875ZM15.059 35.037L10.249 39.033C10.1503 39.1317 9.99 39.218 9.768 39.292C9.57067 39.366 9.34867 39.403 9.102 39.403H3.367C2.775 39.403 2.34333 39.2673 2.072 38.996C1.80067 38.7247 1.665 38.293 1.665 37.701V13.725C1.665 13.4043 1.702 13.133 1.776 12.911C1.87467 12.689 2.01033 12.504 2.183 12.356L6.956 8.323C7.07933 8.22433 7.23967 8.15033 7.437 8.101C7.659 8.027 7.89333 7.99 8.14 7.99H13.875C14.467 7.99 14.8987 8.12567 15.17 8.397C15.4413 8.66833 15.577 9.1 15.577 9.692V17.351H16.243V13.725C16.243 13.4043 16.28 13.133 16.354 12.911C16.4527 12.689 16.5883 12.504 16.761 12.356L21.534 8.323C21.6573 8.22433 21.8177 8.15033 22.015 8.101C22.237 8.027 22.4713 7.99 22.718 7.99H28.453C29.045 7.99 29.4767 8.12567 29.748 8.397C30.0193 8.66833 30.155 9.1 30.155 9.692V33.668C30.155 33.9887 30.1057 34.26 30.007 34.482C29.933 34.704 29.8097 34.889 29.637 35.037L24.827 39.033C24.7283 39.1317 24.568 39.218 24.346 39.292C24.1487 39.366 23.9267 39.403 23.68 39.403H17.945C17.353 39.403 16.9213 39.2673 16.65 38.996C16.3787 38.7247 16.243 38.293 16.243 37.701V29.857H15.577V33.668C15.577 33.9887 15.5277 34.26 15.429 34.482C15.355 34.704 15.2317 34.889 15.059 35.037ZM50.3339 39.403H34.5719C33.9799 39.403 33.5482 39.2673 33.2769 38.996C33.0055 38.7247 32.8699 38.293 32.8699 37.701V33.298C32.8699 32.9773 32.9069 32.706 32.9809 32.484C33.0795 32.262 33.2152 32.077 33.3879 31.929L37.8649 28.155V19.904H34.5719C33.9799 19.904 33.5482 19.7683 33.2769 19.497C33.0055 19.2257 32.8699 18.794 32.8699 18.202V13.725C32.8699 13.4043 32.9069 13.133 32.9809 12.911C33.0795 12.689 33.2152 12.504 33.3879 12.356L38.1609 8.323C38.2842 8.22433 38.4445 8.15033 38.6419 8.101C38.8639 8.027 39.0982 7.99 39.3449 7.99H55.1069C55.6989 7.99 56.1305 8.12567 56.4019 8.397C56.6732 8.66833 56.8089 9.1 56.8089 9.692V14.169C56.8089 14.4897 56.7595 14.761 56.6609 14.983C56.5869 15.205 56.4635 15.39 56.2909 15.538L51.8879 19.238V27.563H55.1069C55.6989 27.563 56.1305 27.6987 56.4019 27.97C56.6732 28.2413 56.8089 28.673 56.8089 29.265V33.668C56.8089 33.9887 56.7595 34.26 56.6609 34.482C56.5869 34.704 56.4635 34.889 56.2909 35.037L51.4809 39.033C51.3822 39.1317 51.2219 39.218 50.9999 39.292C50.8025 39.366 50.5805 39.403 50.3339 39.403ZM39.3449 35H55.1069C55.5755 35 55.9085 34.9013 56.1059 34.704C56.3279 34.482 56.4389 34.1367 56.4389 33.668V29.265C56.4389 28.7963 56.3279 28.4633 56.1059 28.266C55.9085 28.044 55.5755 27.933 55.1069 27.933H51.5179V15.501H55.1069C55.5755 15.501 55.9085 15.4023 56.1059 15.205C56.3279 14.983 56.4389 14.6377 56.4389 14.169V9.692C56.4389 9.22333 56.3279 8.89033 56.1059 8.693C55.9085 8.471 55.5755 8.36 55.1069 8.36H39.3449C38.8762 8.36 38.5309 8.471 38.3089 8.693C38.1115 8.89033 38.0129 9.22333 38.0129 9.692V14.169C38.0129 14.6377 38.1115 14.983 38.3089 15.205C38.5309 15.4023 38.8762 15.501 39.3449 15.501H43.0079V27.933H39.3449C38.8762 27.933 38.5309 28.044 38.3089 28.266C38.1115 28.4633 38.0129 28.7963 38.0129 29.265V33.668C38.0129 34.1367 38.1115 34.482 38.3089 34.704C38.5309 34.9013 38.8762 35 39.3449 35ZM53.1089 31.67H41.3429V31.3H47.0779V12.06H41.3429V11.69H53.1089V12.06H47.4479V31.3H53.1089V31.67Z" fill="#393939"/>
<path d="M62.24 42.884C61.664 42.884 61.244 42.752 60.98 42.488C60.716 42.248 60.584 41.828 60.584 41.228V39.788C60.584 39.476 60.62 39.212 60.692 38.996C60.788 38.78 60.92 38.6 61.088 38.456L62.456 37.304H61.772C61.196 37.304 60.776 37.172 60.512 36.908C60.248 36.644 60.116 36.224 60.116 35.648V30.32C60.116 30.008 60.152 29.744 60.224 29.528C60.32 29.312 60.452 29.132 60.62 28.988L65.264 25.064C65.384 24.968 65.54 24.896 65.732 24.848C65.948 24.776 66.176 24.74 66.416 24.74H73.688C74.264 24.74 74.684 24.872 74.948 25.136C75.212 25.4 75.344 25.82 75.344 26.396V33.164C75.344 34.22 75.176 35.12 74.84 35.864C74.528 36.632 74.096 37.256 73.544 37.736L68.864 41.66C68.408 42.044 67.844 42.344 67.172 42.56C66.524 42.776 65.804 42.884 65.012 42.884H62.24ZM69.656 38.6C71.264 38.6 72.548 38.144 73.508 37.232C74.492 36.344 74.984 34.988 74.984 33.164V26.396C74.984 25.94 74.876 25.616 74.66 25.424C74.468 25.208 74.144 25.1 73.688 25.1H66.416C65.96 25.1 65.624 25.208 65.408 25.424C65.216 25.616 65.12 25.94 65.12 26.396V31.724C65.12 32.18 65.216 32.516 65.408 32.732C65.624 32.924 65.96 33.02 66.416 33.02H70.34V33.56C70.34 33.872 70.256 34.124 70.088 34.316C69.92 34.484 69.68 34.568 69.368 34.568H66.884C66.428 34.568 66.092 34.676 65.876 34.892C65.684 35.084 65.588 35.408 65.588 35.864V37.304C65.588 37.76 65.684 38.084 65.876 38.276C66.092 38.492 66.428 38.6 66.884 38.6H69.656ZM72.464 28.88V33.164C72.464 34.268 72.176 35.084 71.6 35.612C71.024 36.164 70.256 36.44 69.296 36.44H67.64V36.08H69.296C70.16 36.08 70.844 35.828 71.348 35.324C71.852 34.844 72.104 34.124 72.104 33.164V29.24H67.64V28.88H72.464ZM101.817 37.376C101.074 38 100.126 38.468 98.9735 38.78C97.8215 39.116 96.4655 39.284 94.9055 39.284H82.7735C82.1975 39.284 81.7775 39.152 81.5135 38.888C81.2495 38.624 81.1175 38.204 81.1175 37.628V14.3C81.1175 13.988 81.1535 13.724 81.2255 13.508C81.3215 13.292 81.4535 13.112 81.6215 12.968L86.2655 9.044C86.3855 8.948 86.5415 8.876 86.7335 8.828C86.9495 8.756 87.1775 8.72 87.4175 8.72H99.5495C102.694 8.72 105.01 9.356 106.498 10.628C108.01 11.9 108.766 13.832 108.766 16.424V27.656C108.766 28.952 108.574 30.092 108.19 31.076C107.806 32.036 107.242 32.84 106.498 33.488L101.817 37.376ZM99.5495 35C102.55 35 104.77 34.4 106.21 33.2C107.674 32 108.406 30.152 108.406 27.656V16.424C108.406 13.928 107.674 12.08 106.21 10.88C104.77 9.68 102.55 9.08 99.5495 9.08H87.4175C86.9615 9.08 86.6255 9.188 86.4095 9.404C86.2175 9.596 86.1215 9.92 86.1215 10.376V33.704C86.1215 34.16 86.2175 34.496 86.4095 34.712C86.6255 34.904 86.9615 35 87.4175 35H99.5495ZM90.0455 31.76V12.32H98.7575C99.9815 12.32 100.966 12.452 101.71 12.716C102.478 12.98 103.066 13.34 103.473 13.796C103.882 14.228 104.158 14.756 104.301 15.38C104.446 15.98 104.518 16.628 104.518 17.324V26.864C104.518 27.56 104.446 28.208 104.301 28.808C104.181 29.408 103.918 29.924 103.51 30.356C103.102 30.788 102.514 31.136 101.746 31.4C100.978 31.64 99.9815 31.76 98.7575 31.76H90.0455ZM98.7575 12.68H90.4055V31.4H98.7575C99.9095 31.4 100.834 31.292 101.53 31.076C102.25 30.836 102.802 30.524 103.186 30.14C103.57 29.732 103.822 29.252 103.942 28.7C104.086 28.124 104.158 27.512 104.158 26.864V17.324C104.158 16.676 104.086 16.064 103.942 15.488C103.798 14.912 103.534 14.42 103.149 14.012C102.766 13.604 102.214 13.28 101.493 13.04C100.797 12.8 99.8855 12.68 98.7575 12.68ZM94.2935 15.956H98.5775C99.1535 15.956 99.5735 16.1 99.8375 16.388C100.125 16.652 100.27 17.084 100.27 17.684V26.432C100.27 27.032 100.125 27.476 99.8375 27.764C99.5735 28.052 99.1535 28.196 98.5775 28.196H94.2935V15.956ZM95.2655 21.608C95.2655 21.296 95.2175 21.032 95.1215 20.816C95.0255 20.6 94.8695 20.444 94.6535 20.348V27.836H95.2655V21.608ZM119.483 24.092V25.208H133.523V24.092C133.523 23.444 133.463 22.844 133.343 22.292C133.247 21.74 133.115 21.224 132.947 20.744L130.463 14.876C130.199 14.252 129.923 13.736 129.635 13.328C129.347 12.896 128.867 12.68 128.195 12.68H124.667C123.947 12.68 123.443 12.896 123.155 13.328C122.867 13.736 122.603 14.24 122.363 14.84L120.059 20.744C119.891 21.224 119.747 21.74 119.627 22.292C119.531 22.844 119.483 23.444 119.483 24.092ZM125.243 16.64C125.339 16.424 125.435 16.268 125.531 16.172C125.651 16.076 125.783 16.028 125.927 16.028H126.827C126.971 16.028 127.091 16.076 127.187 16.172C127.307 16.268 127.415 16.424 127.511 16.64L129.203 22.112H123.551L125.243 16.64ZM133.523 31.76V25.568H119.483V31.76H119.123V24.092C119.123 23.42 119.171 22.808 119.267 22.256C119.387 21.68 119.543 21.128 119.735 20.6L122.039 14.696C122.303 14.024 122.603 13.46 122.939 13.004C123.275 12.548 123.851 12.32 124.667 12.32H128.195C128.987 12.32 129.539 12.548 129.851 13.004C130.187 13.46 130.499 14.036 130.787 14.732L133.271 20.6C133.463 21.128 133.607 21.68 133.703 22.256C133.823 22.808 133.883 23.42 133.883 24.092V31.76H133.523ZM123.191 33.704V28.664H129.563V33.704C129.563 34.16 129.671 34.496 129.887 34.712C130.127 34.904 130.487 35 130.967 35H136.403C136.859 35 137.183 34.904 137.375 34.712C137.591 34.496 137.699 34.16 137.699 33.704V24.2C137.699 23.48 137.579 22.652 137.339 21.716C137.123 20.78 136.775 19.688 136.295 18.44L133.163 10.268C133.019 9.86 132.791 9.56 132.479 9.368C132.191 9.176 131.819 9.08 131.363 9.08H121.679C121.199 9.08 120.803 9.176 120.491 9.368C120.203 9.56 119.987 9.86 119.843 10.268L116.711 18.44C116.231 19.688 115.871 20.78 115.631 21.716C115.415 22.652 115.307 23.48 115.307 24.2V33.704C115.307 34.16 115.403 34.496 115.595 34.712C115.811 34.904 116.147 35 116.603 35H121.895C122.351 35 122.675 34.904 122.867 34.712C123.083 34.496 123.191 34.16 123.191 33.704ZM118.367 38.924C118.271 39.02 118.115 39.104 117.899 39.176C117.707 39.248 117.491 39.284 117.251 39.284H111.959C111.383 39.284 110.963 39.152 110.699 38.888C110.435 38.624 110.303 38.204 110.303 37.628V28.124C110.303 27.38 110.411 26.54 110.627 25.604C110.867 24.644 111.239 23.516 111.743 22.22L114.839 14.084C114.911 13.868 114.995 13.688 115.091 13.544C115.211 13.376 115.331 13.232 115.451 13.112L115.487 13.076L120.095 9.224C120.287 9.056 120.515 8.936 120.779 8.864C121.043 8.768 121.343 8.72 121.679 8.72H131.363C131.915 8.72 132.359 8.84 132.695 9.08C133.055 9.296 133.319 9.644 133.487 10.124L136.619 18.296C137.123 19.592 137.483 20.72 137.699 21.68C137.939 22.616 138.059 23.456 138.059 24.2V33.704C138.059 34.016 138.011 34.28 137.915 34.496C137.843 34.712 137.723 34.892 137.555 35.036L132.875 38.924C132.779 39.02 132.623 39.104 132.407 39.176C132.215 39.248 131.999 39.284 131.759 39.284H126.323C125.723 39.284 125.279 39.14 124.991 38.852C124.703 38.588 124.559 38.18 124.559 37.628V32.948H123.551V33.704C123.551 34.016 123.503 34.28 123.407 34.496C123.335 34.712 123.215 34.892 123.047 35.036L118.367 38.924ZM149.762 12.608L163.01 27.512V12.32H163.37V31.76H163.01V28.052L149.402 12.788C149.378 12.764 149.342 12.74 149.294 12.716C149.27 12.692 149.246 12.68 149.222 12.68C149.198 12.68 149.174 12.692 149.15 12.716C149.15 12.74 149.15 12.764 149.15 12.788V31.76H148.79V12.716C148.79 12.572 148.838 12.464 148.934 12.392C149.03 12.32 149.126 12.284 149.222 12.284C149.318 12.284 149.402 12.308 149.474 12.356C149.546 12.404 149.642 12.488 149.762 12.608ZM151.706 35C152.162 35 152.486 34.904 152.678 34.712C152.894 34.496 153.002 34.16 153.002 33.704V21.824L159.158 29.276V33.704C159.158 34.16 159.254 34.496 159.446 34.712C159.662 34.904 159.998 35 160.454 35H165.854C166.31 35 166.634 34.904 166.826 34.712C167.042 34.496 167.15 34.16 167.15 33.704V10.376C167.15 9.92 167.042 9.596 166.826 9.404C166.634 9.188 166.31 9.08 165.854 9.08H160.454C159.998 9.08 159.662 9.188 159.446 9.404C159.254 9.596 159.158 9.92 159.158 10.376V18.044L152.174 10.052C151.862 9.692 151.538 9.44 151.202 9.296C150.89 9.152 150.506 9.08 150.05 9.08H146.306C145.85 9.08 145.514 9.188 145.298 9.404C145.106 9.596 145.01 9.92 145.01 10.376V33.704C145.01 34.16 145.106 34.496 145.298 34.712C145.514 34.904 145.85 35 146.306 35H151.706ZM152.858 35.036L148.178 38.924C148.082 39.02 147.926 39.104 147.71 39.176C147.518 39.248 147.302 39.284 147.062 39.284H141.662C141.086 39.284 140.666 39.152 140.402 38.888C140.138 38.624 140.006 38.204 140.006 37.628V14.3C140.006 13.988 140.042 13.724 140.114 13.508C140.21 13.292 140.342 13.112 140.51 12.968L145.154 9.044C145.274 8.948 145.43 8.876 145.622 8.828C145.838 8.756 146.066 8.72 146.306 8.72H150.05C150.578 8.72 151.022 8.804 151.382 8.972C151.742 9.14 152.102 9.416 152.462 9.8L154.946 12.68L159.302 9.044C159.422 8.948 159.578 8.876 159.77 8.828C159.986 8.756 160.214 8.72 160.454 8.72H165.854C166.43 8.72 166.85 8.852 167.114 9.116C167.378 9.38 167.51 9.8 167.51 10.376V33.704C167.51 34.016 167.462 34.28 167.366 34.496C167.294 34.712 167.174 34.892 167.006 35.036L162.326 38.924C162.23 39.02 162.074 39.104 161.858 39.176C161.666 39.248 161.45 39.284 161.21 39.284H155.81C155.234 39.284 154.814 39.152 154.55 38.888C154.286 38.624 154.154 38.204 154.154 37.628V33.344L153.362 32.372V33.704C153.362 34.016 153.314 34.28 153.218 34.496C153.146 34.712 153.026 34.892 152.858 35.036ZM186.393 39.284H171.057C170.481 39.284 170.061 39.152 169.797 38.888C169.533 38.624 169.401 38.204 169.401 37.628V33.344C169.401 33.032 169.437 32.768 169.509 32.552C169.605 32.336 169.737 32.156 169.905 32.012L174.261 28.34V20.312H171.057C170.481 20.312 170.061 20.18 169.797 19.916C169.533 19.652 169.401 19.232 169.401 18.656V14.3C169.401 13.988 169.437 13.724 169.509 13.508C169.605 13.292 169.737 13.112 169.905 12.968L174.549 9.044C174.669 8.948 174.825 8.876 175.017 8.828C175.233 8.756 175.461 8.72 175.701 8.72H191.037C191.613 8.72 192.033 8.852 192.297 9.116C192.561 9.38 192.693 9.8 192.693 10.376V14.732C192.693 15.044 192.645 15.308 192.549 15.524C192.477 15.74 192.357 15.92 192.189 16.064L187.905 19.664V27.764H191.037C191.613 27.764 192.033 27.896 192.297 28.16C192.561 28.424 192.693 28.844 192.693 29.42V33.704C192.693 34.016 192.645 34.28 192.549 34.496C192.477 34.712 192.357 34.892 192.189 35.036L187.509 38.924C187.413 39.02 187.257 39.104 187.041 39.176C186.849 39.248 186.633 39.284 186.393 39.284ZM175.701 35H191.037C191.493 35 191.817 34.904 192.009 34.712C192.225 34.496 192.333 34.16 192.333 33.704V29.42C192.333 28.964 192.225 28.64 192.009 28.448C191.817 28.232 191.493 28.124 191.037 28.124H187.545V16.028H191.037C191.493 16.028 191.817 15.932 192.009 15.74C192.225 15.524 192.333 15.188 192.333 14.732V10.376C192.333 9.92 192.225 9.596 192.009 9.404C191.817 9.188 191.493 9.08 191.037 9.08H175.701C175.245 9.08 174.909 9.188 174.693 9.404C174.501 9.596 174.405 9.92 174.405 10.376V14.732C174.405 15.188 174.501 15.524 174.693 15.74C174.909 15.932 175.245 16.028 175.701 16.028H179.265V28.124H175.701C175.245 28.124 174.909 28.232 174.693 28.448C174.501 28.64 174.405 28.964 174.405 29.42V33.704C174.405 34.16 174.501 34.496 174.693 34.712C174.909 34.904 175.245 35 175.701 35ZM189.093 31.76H177.645V31.4H183.225V12.68H177.645V12.32H189.093V12.68H183.585V31.4H189.093V31.76ZM213 39.284H196.296C195.72 39.284 195.3 39.152 195.036 38.888C194.772 38.624 194.64 38.204 194.64 37.628V14.3C194.64 13.988 194.676 13.724 194.748 13.508C194.844 13.292 194.976 13.112 195.144 12.968L199.788 9.044C199.908 8.948 200.064 8.876 200.256 8.828C200.472 8.756 200.7 8.72 200.94 8.72H217.644C218.22 8.72 218.64 8.852 218.904 9.116C219.168 9.38 219.3 9.8 219.3 10.376V14.588C219.3 14.9 219.252 15.164 219.156 15.38C219.084 15.596 218.964 15.776 218.796 15.92L215.7 18.476C215.94 18.596 216.108 18.776 216.204 19.016C216.324 19.256 216.384 19.568 216.384 19.952V23.804C216.384 24.116 216.336 24.38 216.24 24.596C216.168 24.812 216.048 24.992 215.88 25.136L212.676 27.836H217.644C218.22 27.836 218.64 27.968 218.904 28.232C219.168 28.496 219.3 28.916 219.3 29.492V33.704C219.3 34.016 219.252 34.28 219.156 34.496C219.084 34.712 218.964 34.892 218.796 35.036L214.116 38.924C214.02 39.02 213.864 39.104 213.648 39.176C213.456 39.248 213.24 39.284 213 39.284ZM217.644 35C218.1 35 218.424 34.904 218.616 34.712C218.832 34.496 218.94 34.16 218.94 33.704V29.492C218.94 29.036 218.832 28.712 218.616 28.52C218.424 28.304 218.1 28.196 217.644 28.196H207.708V25.1H214.728C215.184 25.1 215.508 25.004 215.7 24.812C215.916 24.596 216.024 24.26 216.024 23.804V19.952C216.024 19.496 215.916 19.172 215.7 18.98C215.508 18.764 215.184 18.656 214.728 18.656H207.708V15.884H217.644C218.1 15.884 218.424 15.788 218.616 15.596C218.832 15.38 218.94 15.044 218.94 14.588V10.376C218.94 9.92 218.832 9.596 218.616 9.404C218.424 9.188 218.1 9.08 217.644 9.08H200.94C200.484 9.08 200.148 9.188 199.932 9.404C199.74 9.596 199.644 9.92 199.644 10.376V33.704C199.644 34.16 199.74 34.496 199.932 34.712C200.148 34.904 200.484 35 200.94 35H217.644ZM215.7 31.4V31.76H203.568V12.32H215.7V12.68H203.928V21.716H212.784V22.076H203.928V31.4H215.7ZM241.04 39.284H222.716C222.14 39.284 221.72 39.152 221.456 38.888C221.192 38.624 221.06 38.204 221.06 37.628V14.3C221.06 13.988 221.096 13.724 221.168 13.508C221.264 13.292 221.396 13.112 221.564 12.968L226.208 9.044C226.328 8.948 226.484 8.876 226.676 8.828C226.892 8.756 227.12 8.72 227.36 8.72H232.94C233.516 8.72 233.936 8.852 234.2 9.116C234.464 9.38 234.596 9.8 234.596 10.376V25.028L234.668 24.956L239.312 21.032C239.432 20.936 239.588 20.864 239.78 20.816C239.996 20.744 240.224 20.708 240.464 20.708H245.684C246.26 20.708 246.68 20.84 246.944 21.104C247.208 21.368 247.34 21.788 247.34 22.364V33.704C247.34 34.016 247.292 34.28 247.196 34.496C247.124 34.712 247.004 34.892 246.836 35.036L242.156 38.924C242.06 39.02 241.904 39.104 241.688 39.176C241.496 39.248 241.28 39.284 241.04 39.284ZM245.684 35C246.14 35 246.464 34.904 246.656 34.712C246.872 34.496 246.98 34.16 246.98 33.704V22.364C246.98 21.908 246.872 21.584 246.656 21.392C246.464 21.176 246.14 21.068 245.684 21.068H240.464C240.008 21.068 239.672 21.176 239.456 21.392C239.264 21.584 239.168 21.908 239.168 22.364V28.196H234.236V10.376C234.236 9.92 234.128 9.596 233.912 9.404C233.72 9.188 233.396 9.08 232.94 9.08H227.36C226.904 9.08 226.568 9.188 226.352 9.404C226.16 9.596 226.064 9.92 226.064 10.376V33.704C226.064 34.16 226.16 34.496 226.352 34.712C226.568 34.904 226.904 35 227.36 35H245.684ZM229.988 31.76V12.32H230.348V31.4H242.876V24.308H243.236V31.76H229.988Z" fill="#393939"/>
</svg>
